<svg width="38" height="38" viewBox="0 0 38 38" fill="none" xmlns="http://www.w3.org/2000/svg">
<rect width="38" height="38" rx="19" fill="white" fill-opacity="0.1"/>
<path d="M12.16 14.3349C13.36 14.3349 14.32 13.3599 14.32 12.1749C14.32 10.9899 13.345 10.0149 12.16 10.0149C10.975 10.0149 10 10.9899 10 12.1749C10 13.3599 10.975 14.3349 12.16 14.3349ZM16.375 15.9699V27.9999H20.095V22.0599C20.095 20.4849 20.395 18.9699 22.33 18.9699C24.265 18.9699 24.265 20.7699 24.265 22.1499V27.9999H28V21.3999C28 18.1599 27.31 15.6699 23.53 15.6699C21.715 15.6699 20.5 16.6599 20.005 17.6049H19.96V15.9549H16.39L16.375 15.9699ZM10.3 15.9699H14.035V27.9999H10.3V15.9699Z" fill="#A9A9A9"/>
</svg>
