<svg width="125" height="30" viewBox="0 0 125 30" fill="none" xmlns="http://www.w3.org/2000/svg">
<path d="M18.18 4.91998H2.81998C1.49518 4.91998 0.419983 5.99518 0.419983 7.31998V22.68C0.419983 24.0048 1.49518 25.08 2.81998 25.08H18.18C19.5048 25.08 20.58 24.0048 20.58 22.68V7.31998C20.58 5.99518 19.5048 4.91998 18.18 4.91998ZM6.65998 12.6V21.72H3.77998V12.6H6.65998ZM3.77998 9.94558C3.77998 9.27358 4.35598 8.75998 5.21998 8.75998C6.08398 8.75998 6.62638 9.27358 6.65998 9.94558C6.65998 10.6176 6.12238 11.16 5.21998 11.16C4.35598 11.16 3.77998 10.6176 3.77998 9.94558ZM17.22 21.72H14.34C14.34 21.72 14.34 17.2752 14.34 16.92C14.34 15.96 13.86 15 12.66 14.9808H12.6216C11.46 14.9808 10.98 15.9696 10.98 16.92C10.98 17.3568 10.98 21.72 10.98 21.72H8.09998V12.6H10.98V13.8288C10.98 13.8288 11.9064 12.6 13.7688 12.6C15.6744 12.6 17.22 13.9104 17.22 16.5648V21.72Z" fill="#FD8D1A"/>
<path d="M38.7924 21.192C39.2084 21.192 39.5524 21.328 39.8244 21.6C40.1124 21.856 40.2564 22.192 40.2564 22.608C40.2564 23.008 40.1124 23.344 39.8244 23.616C39.5524 23.872 39.2084 24 38.7924 24H30.9924C30.5764 24 30.2244 23.864 29.9364 23.592C29.6644 23.304 29.5284 22.952 29.5284 22.536V8.664C29.5284 8.248 29.6724 7.904 29.9604 7.632C30.2484 7.344 30.6164 7.2 31.0644 7.2C31.4484 7.2 31.7844 7.344 32.0724 7.632C32.3764 7.904 32.5284 8.248 32.5284 8.664V21.6L32.0004 21.192H38.7924ZM45.477 22.536C45.477 22.952 45.341 23.304 45.069 23.592C44.797 23.864 44.453 24 44.037 24C43.621 24 43.277 23.864 43.005 23.592C42.733 23.304 42.597 22.952 42.597 22.536V12.624C42.597 12.208 42.733 11.864 43.005 11.592C43.277 11.304 43.621 11.16 44.037 11.16C44.453 11.16 44.797 11.304 45.069 11.592C45.341 11.864 45.477 12.208 45.477 12.624V22.536ZM44.013 9.6C43.469 9.6 43.085 9.512 42.861 9.336C42.637 9.16 42.525 8.848 42.525 8.4V7.944C42.525 7.48 42.645 7.168 42.885 7.008C43.141 6.832 43.525 6.744 44.037 6.744C44.597 6.744 44.989 6.832 45.213 7.008C45.437 7.184 45.549 7.496 45.549 7.944V8.4C45.549 8.864 45.429 9.184 45.189 9.36C44.949 9.52 44.557 9.6 44.013 9.6ZM55.3008 10.92C56.4848 10.92 57.3808 11.168 57.9888 11.664C58.6128 12.16 59.0368 12.824 59.2608 13.656C59.5008 14.472 59.6208 15.384 59.6208 16.392V22.536C59.6208 22.952 59.4848 23.304 59.2128 23.592C58.9408 23.864 58.5968 24 58.1808 24C57.7648 24 57.4208 23.864 57.1488 23.592C56.8768 23.304 56.7408 22.952 56.7408 22.536V16.392C56.7408 15.864 56.6688 15.392 56.5248 14.976C56.3968 14.544 56.1568 14.2 55.8048 13.944C55.4528 13.688 54.9488 13.56 54.2928 13.56C53.6528 13.56 53.1088 13.688 52.6608 13.944C52.2288 14.2 51.8928 14.544 51.6528 14.976C51.4288 15.392 51.3168 15.864 51.3168 16.392V22.536C51.3168 22.952 51.1808 23.304 50.9088 23.592C50.6368 23.864 50.2928 24 49.8768 24C49.4608 24 49.1168 23.864 48.8448 23.592C48.5728 23.304 48.4368 22.952 48.4368 22.536V12.624C48.4368 12.208 48.5728 11.864 48.8448 11.592C49.1168 11.304 49.4608 11.16 49.8768 11.16C50.2928 11.16 50.6368 11.304 50.9088 11.592C51.1808 11.864 51.3168 12.208 51.3168 12.624V13.656L50.9568 13.584C51.1008 13.312 51.3088 13.024 51.5808 12.72C51.8528 12.4 52.1728 12.104 52.5408 11.832C52.9088 11.56 53.3248 11.344 53.7888 11.184C54.2528 11.008 54.7568 10.92 55.3008 10.92ZM64.4137 24C63.9977 24 63.6537 23.864 63.3817 23.592C63.1097 23.304 62.9737 22.952 62.9737 22.536V7.704C62.9737 7.288 63.1097 6.944 63.3817 6.672C63.6537 6.384 63.9977 6.24 64.4137 6.24C64.8297 6.24 65.1737 6.384 65.4457 6.672C65.7177 6.944 65.8537 7.288 65.8537 7.704V22.536C65.8537 22.952 65.7177 23.304 65.4457 23.592C65.1737 23.864 64.8297 24 64.4137 24ZM72.0457 11.16C72.4137 11.16 72.7337 11.312 73.0057 11.616C73.2777 11.92 73.4137 12.216 73.4137 12.504C73.4137 12.888 73.2217 13.248 72.8377 13.584L65.6137 20.232L65.4937 16.92L70.9897 11.616C71.2937 11.312 71.6457 11.16 72.0457 11.16ZM72.4057 23.976C71.9897 23.976 71.6377 23.816 71.3497 23.496L66.9097 18.792L69.0937 16.776L73.4137 21.48C73.7177 21.8 73.8697 22.16 73.8697 22.56C73.8697 22.976 73.7017 23.32 73.3657 23.592C73.0457 23.848 72.7257 23.976 72.4057 23.976ZM81.9067 24.24C80.5467 24.24 79.3627 23.96 78.3547 23.4C77.3627 22.824 76.5947 22.048 76.0507 21.072C75.5227 20.096 75.2587 18.992 75.2587 17.76C75.2587 16.32 75.5467 15.096 76.1227 14.088C76.7147 13.064 77.4827 12.28 78.4267 11.736C79.3707 11.192 80.3707 10.92 81.4267 10.92C82.2427 10.92 83.0107 11.088 83.7307 11.424C84.4667 11.76 85.1147 12.224 85.6747 12.816C86.2347 13.392 86.6747 14.064 86.9947 14.832C87.3307 15.6 87.4987 16.416 87.4987 17.28C87.4827 17.664 87.3307 17.976 87.0427 18.216C86.7547 18.456 86.4187 18.576 86.0347 18.576H76.8667L76.1467 16.176H84.9547L84.4267 16.656V16.008C84.3947 15.544 84.2267 15.128 83.9227 14.76C83.6347 14.392 83.2667 14.104 82.8187 13.896C82.3867 13.672 81.9227 13.56 81.4267 13.56C80.9467 13.56 80.4987 13.624 80.0827 13.752C79.6667 13.88 79.3067 14.096 79.0027 14.4C78.6987 14.704 78.4587 15.112 78.2827 15.624C78.1067 16.136 78.0187 16.784 78.0187 17.568C78.0187 18.432 78.1947 19.168 78.5467 19.776C78.9147 20.368 79.3787 20.824 79.9387 21.144C80.5147 21.448 81.1227 21.6 81.7627 21.6C82.3547 21.6 82.8267 21.552 83.1787 21.456C83.5307 21.36 83.8107 21.248 84.0187 21.12C84.2427 20.976 84.4427 20.856 84.6187 20.76C84.9067 20.616 85.1787 20.544 85.4347 20.544C85.7867 20.544 86.0747 20.664 86.2987 20.904C86.5387 21.144 86.6587 21.424 86.6587 21.744C86.6587 22.176 86.4347 22.568 85.9867 22.92C85.5707 23.272 84.9867 23.584 84.2347 23.856C83.4827 24.112 82.7067 24.24 81.9067 24.24ZM100.527 6.24C100.943 6.24 101.287 6.376 101.559 6.648C101.831 6.92 101.967 7.272 101.967 7.704V22.536C101.967 22.952 101.831 23.304 101.559 23.592C101.287 23.864 100.943 24 100.527 24C100.111 24 99.767 23.864 99.495 23.592C99.223 23.304 99.087 22.952 99.087 22.536V21.36L99.615 21.576C99.615 21.784 99.503 22.04 99.279 22.344C99.055 22.632 98.751 22.92 98.367 23.208C97.983 23.496 97.527 23.744 96.999 23.952C96.487 24.144 95.927 24.24 95.319 24.24C94.215 24.24 93.215 23.96 92.319 23.4C91.423 22.824 90.711 22.04 90.183 21.048C89.671 20.04 89.415 18.888 89.415 17.592C89.415 16.28 89.671 15.128 90.183 14.136C90.711 13.128 91.415 12.344 92.295 11.784C93.175 11.208 94.151 10.92 95.223 10.92C95.911 10.92 96.543 11.024 97.119 11.232C97.695 11.44 98.191 11.704 98.607 12.024C99.039 12.344 99.367 12.672 99.591 13.008C99.831 13.328 99.951 13.6 99.951 13.824L99.087 14.136V7.704C99.087 7.288 99.223 6.944 99.495 6.672C99.767 6.384 100.111 6.24 100.527 6.24ZM95.679 21.6C96.383 21.6 96.999 21.424 97.527 21.072C98.055 20.72 98.463 20.24 98.751 19.632C99.055 19.024 99.207 18.344 99.207 17.592C99.207 16.824 99.055 16.136 98.751 15.528C98.463 14.92 98.055 14.44 97.527 14.088C96.999 13.736 96.383 13.56 95.679 13.56C94.991 13.56 94.383 13.736 93.855 14.088C93.327 14.44 92.911 14.92 92.607 15.528C92.319 16.136 92.175 16.824 92.175 17.592C92.175 18.344 92.319 19.024 92.607 19.632C92.911 20.24 93.327 20.72 93.855 21.072C94.383 21.424 94.991 21.6 95.679 21.6ZM108.325 22.536C108.325 22.952 108.173 23.304 107.869 23.592C107.565 23.864 107.213 24 106.813 24C106.365 24 106.005 23.864 105.733 23.592C105.461 23.304 105.325 22.952 105.325 22.536V8.664C105.325 8.248 105.469 7.904 105.757 7.632C106.045 7.344 106.413 7.2 106.861 7.2C107.245 7.2 107.581 7.344 107.869 7.632C108.173 7.904 108.325 8.248 108.325 8.664V22.536ZM118.559 10.92C119.743 10.92 120.639 11.168 121.247 11.664C121.871 12.16 122.295 12.824 122.519 13.656C122.759 14.472 122.879 15.384 122.879 16.392V22.536C122.879 22.952 122.743 23.304 122.471 23.592C122.199 23.864 121.855 24 121.439 24C121.023 24 120.679 23.864 120.407 23.592C120.135 23.304 119.999 22.952 119.999 22.536V16.392C119.999 15.864 119.927 15.392 119.783 14.976C119.655 14.544 119.415 14.2 119.063 13.944C118.711 13.688 118.207 13.56 117.551 13.56C116.911 13.56 116.367 13.688 115.919 13.944C115.487 14.2 115.151 14.544 114.911 14.976C114.687 15.392 114.575 15.864 114.575 16.392V22.536C114.575 22.952 114.439 23.304 114.167 23.592C113.895 23.864 113.551 24 113.135 24C112.719 24 112.375 23.864 112.103 23.592C111.831 23.304 111.695 22.952 111.695 22.536V12.624C111.695 12.208 111.831 11.864 112.103 11.592C112.375 11.304 112.719 11.16 113.135 11.16C113.551 11.16 113.895 11.304 114.167 11.592C114.439 11.864 114.575 12.208 114.575 12.624V13.656L114.215 13.584C114.359 13.312 114.567 13.024 114.839 12.72C115.111 12.4 115.431 12.104 115.799 11.832C116.167 11.56 116.583 11.344 117.047 11.184C117.511 11.008 118.015 10.92 118.559 10.92Z" fill="#FD8D1A"/>
</svg>
