<svg width="70" height="70" viewBox="0 0 70 70" fill="none" xmlns="http://www.w3.org/2000/svg">
<rect width="70" height="70" rx="30" fill="#FD8D1A" fill-opacity="0.2"/>
<path d="M34.9999 35.8334L34.1516 37.0452C34.6609 37.4017 35.3388 37.4017 35.8481 37.0452L34.9999 35.8334ZM24.3332 25.3125H45.6666V22.3542H24.3332V25.3125ZM45.6666 25.3125C46.3163 25.3125 46.8541 25.8503 46.8541 26.5H49.8124C49.8124 24.2165 47.9501 22.3542 45.6666 22.3542V25.3125ZM46.8541 26.5V42.5H49.8124V26.5H46.8541ZM46.8541 42.5C46.8541 43.1498 46.3163 43.6875 45.6666 43.6875V46.6459C47.9501 46.6459 49.8124 44.7836 49.8124 42.5H46.8541ZM45.6666 43.6875H24.3332V46.6459H45.6666V43.6875ZM24.3332 43.6875C23.6835 43.6875 23.1457 43.1498 23.1457 42.5H20.1874C20.1874 44.7836 22.0496 46.6459 24.3332 46.6459V43.6875ZM23.1457 42.5V26.5H20.1874V42.5H23.1457ZM23.1457 26.5C23.1457 25.8503 23.6835 25.3125 24.3332 25.3125V22.3542C22.0496 22.3542 20.1874 24.2165 20.1874 26.5H23.1457ZM47.485 25.2883L34.1516 34.6216L35.8481 37.0452L49.1815 27.7118L47.485 25.2883ZM35.8481 34.6216L22.5148 25.2883L20.8183 27.7118L34.1516 37.0452L35.8481 34.6216Z" fill="#FCAC19"/>
</svg>
