<svg width="70" height="70" viewBox="0 0 70 70" fill="none" xmlns="http://www.w3.org/2000/svg">
<rect width="70" height="70" rx="30" fill="#FD8D1A" fill-opacity="0.2"/>
<path d="M48.3333 41.56V45.56C48.3348 45.9313 48.2588 46.2989 48.11 46.6391C47.9612 46.9793 47.7431 47.2848 47.4694 47.5358C47.1958 47.7868 46.8728 47.9779 46.521 48.0969C46.1692 48.2159 45.7965 48.2601 45.4267 48.2266C41.3238 47.7808 37.3827 46.3788 33.92 44.1333C30.6984 42.0862 27.9671 39.3549 25.92 36.1333C23.6666 32.6549 22.2643 28.6946 21.8267 24.5733C21.7933 24.2046 21.8372 23.833 21.9553 23.4821C22.0735 23.1313 22.2634 22.8089 22.513 22.5355C22.7626 22.262 23.0664 22.0436 23.4051 21.894C23.7437 21.7444 24.1098 21.667 24.48 21.6666H28.48C29.1271 21.6603 29.7544 21.8894 30.245 22.3113C30.7356 22.7333 31.0561 23.3192 31.1467 23.96C31.3155 25.2401 31.6286 26.4969 32.08 27.7066C32.2594 28.1839 32.2982 28.7025 32.1919 29.2011C32.0855 29.6998 31.8385 30.1574 31.48 30.52L29.7867 32.2133C31.6847 35.5514 34.4486 38.3152 37.7867 40.2133L39.48 38.52C39.8425 38.1615 40.3002 37.9144 40.7988 37.8081C41.2974 37.7018 41.8161 37.7406 42.2933 37.92C43.503 38.3714 44.7599 38.6845 46.04 38.8533C46.6877 38.9447 47.2792 39.2709 47.702 39.77C48.1249 40.269 48.3496 40.9061 48.3333 41.56Z" stroke="#FCAC19" stroke-width="2" stroke-linecap="round" stroke-linejoin="round"/>
</svg>
