<svg width="38" height="38" viewBox="0 0 38 38" fill="none" xmlns="http://www.w3.org/2000/svg">
<rect width="38" height="38" rx="19" fill="white" fill-opacity="0.1"/>
<path d="M17 22L22.19 19L17 16V22ZM28.56 14.17C28.69 14.64 28.78 15.27 28.84 16.07C28.91 16.87 28.94 17.56 28.94 18.16L29 19C29 21.19 28.84 22.8 28.56 23.83C28.31 24.73 27.73 25.31 26.83 25.56C26.36 25.69 25.5 25.78 24.18 25.84C22.88 25.91 21.69 25.94 20.59 25.94L19 26C14.81 26 12.2 25.84 11.17 25.56C10.27 25.31 9.69 24.73 9.44 23.83C9.31 23.36 9.22 22.73 9.16 21.93C9.09 21.13 9.06 20.44 9.06 19.84L9 19C9 16.81 9.16 15.2 9.44 14.17C9.69 13.27 10.27 12.69 11.17 12.44C11.64 12.31 12.5 12.22 13.82 12.16C15.12 12.09 16.31 12.06 17.41 12.06L19 12C23.19 12 25.8 12.16 26.83 12.44C27.73 12.69 28.31 13.27 28.56 14.17Z" fill="#A9A9A9"/>
</svg>
